:FULLY-SPECIFIED
:FORCE-ALL-JOINTS-BE-3DOF
:DEGREES
2039
root -3.38531 14.8591 22.9656 176.408 -9.654 173.212
lfemur -9.82676 9.29522 -16.7148
ltibia 56.8415 -0 0
lfoot -24.0756 26.2983 0.253795
ltoes -36.5872 0 0
rfemur -38.7637 -8.16424 4.86366
rtibia 47.9301 -0 0
rfoot 22.3902 -4.6645 0.671247
rtoes 8.53919 -0 0
lowerback 13.8737 0.819421 -7.06648
upperback 0.401019 -0.0234328 1.51311
thorax -7.46264 0.228328 5.59324
lowerneck -3.92391 -5.11973 -7.25986
upperneck 9.48235 -6.7351 1.56015
head 4.06578 -3.63847 1.16073
lclavicle -1.53064e-14 5.80451e-14 0
lhumerus -47.8823 -6.13134 95.0765
lradius 75.8169 -0 0
lwrist 32.5536 0 0
lhand -26.1986 33.5234 -0.0358126
lfingers 7.12502 -0 0
lthumb 0.35404 63.5127 -0.0338671
rclavicle -1.53064e-14 5.80451e-14 0
rhumerus 20.52 -17.1874 -89.7468
rradius 33.2224 -0 0
rwrist 48.9632 0 0
rhand -0.873522 -35.4373 -0.0976885
rfingers 7.12502 -0 0
rthumb 24.7506 -63.8285 -0.0844123
2040
root -3.37727 14.8497 22.8077 176.032 -10.7075 173.143
lfemur -8.8158 8.69785 -17.1054
ltibia 56.5005 -0 0
lfoot -24.5538 26.1578 0.245373
ltoes -37.1428 0 0
rfemur -39.344 -8.35258 4.76424
rtibia 46.9549 -0 0
rfoot 23.1 -3.88568 0.574566
rtoes 8.67019 -0 0
lowerback 14.0013 0.935116 -7.23785
upperback 0.454972 0.081377 1.42982
thorax -7.48754 0.280402 5.58371
lowerneck -3.85576 -5.52612 -7.56507
upperneck 9.7115 -7.30247 1.79063
head 4.14064 -3.92259 1.25913
lclavicle -1.53064e-14 5.80451e-14 0
lhumerus -49.7867 -6.78746 96.4458
lradius 78.4846 -0 0
lwrist 35.3894 0 0
lhand -26.1608 33.2697 -0.0353159
lfingers 7.12502 -0 0
lthumb 0.390566 63.2584 -0.0334283
rclavicle -1.53064e-14 5.80451e-14 0
rhumerus 24.0432 -17.8837 -90.3558
rradius 30.7261 -0 0
rwrist 53.1809 0 0
rhand -1.08389 -35.2758 -0.0921072
rfingers 7.12502 -0 0
rthumb 24.5491 -63.6957 -0.0794156
2041
root -3.36917 14.8414 22.6379 175.667 -11.7023 173.084
lfemur -7.84986 8.1219 -17.5093
ltibia 56.1658 -0 0
lfoot -25.0169 26.0101 0.23459
ltoes -37.6871 0 0
rfemur -39.9043 -8.53438 4.68244
rtibia 46.0031 -0 0
rfoot 23.7664 -3.13646 0.478837
rtoes 8.77813 -0 0
lowerback 14.1276 1.04926 -7.39834
upperback 0.507617 0.186048 1.34972
thorax -7.5129 0.33219 5.57145
lowerneck -3.78634 -5.91544 -7.85901
upperneck 9.93249 -7.84778 2.01063
head 4.21333 -4.19536 1.3533
lclavicle -1.53064e-14 5.80451e-14 0
lhumerus -51.6166 -7.43941 97.8099
lradius 81.1394 -0 0
lwrist 38.1756 0 0
lhand -26.1192 33.0231 -0.0344081
lfingers 7.12502 -0 0
lthumb 0.430684 63.0111 -0.0325964
rclavicle -1.53064e-14 5.80451e-14 0
rhumerus 27.4914 -18.502 -90.9678
rradius 28.3072 -0 0
rwrist 57.2786 0 0
rhand -1.29375 -35.1199 -0.0858554
rfingers 7.12502 -0 0
rthumb 24.3481 -63.5683 -0.0738679
2042
root -3.36125 14.8341 22.4552 175.315 -12.6344 173.034
lfemur -6.93239 7.56893 -17.9245
ltibia 55.8384 -0 0
lfoot -25.4635 25.8554 0.221421
ltoes -38.2185 0 0
rfemur -40.4424 -8.70868 4.61866
rtibia 45.0777 -0 0
rfoot 24.3866 -2.41925 0.385962
rtoes 8.86214 -0 0
lowerback 14.2525 1.16147 -7.54728
upperback 0.5588 0.290301 1.27308
thorax -7.53868 0.383552 5.55642
lowerneck -3.7161 -6.28631 -8.14059
upperneck 10.1449 -8.36896 2.21961
head 4.28366 -4.45581 1.44294
lclavicle -1.53064e-14 5.80451e-14 0
lhumerus -53.3654 -8.09024 99.1639
lradius 83.7741 -0 0
lwrist 40.9037 0 0
lhand -26.074 32.7844 -0.0330696
lfingers 7.12502 -0 0
lthumb 0.47438 62.7716 -0.0313525
rclavicle -1.53064e-14 5.80451e-14 0
rhumerus 30.8502 -19.0423 -91.5721
rradius 25.9738 -0 0
rwrist 61.243 0 0
rhand -1.50255 -34.97 -0.0789814
rfingers 7.12502 -0 0
rthumb 24.1481 -63.4467 -0.0678131
2043
root -3.35376 14.8279 22.2587 174.976 -13.4995 172.994
lfemur -6.06691 7.04039 -18.3485
ltibia 55.5194 -0 0
lfoot -25.8918 25.6939 0.205853
ltoes -38.7353 0 0
rfemur -40.9567 -8.87454 4.57329
rtibia 44.1816 -0 0
rfoot 24.9581 -1.73646 0.29789
rtoes 8.92139 -0 0
lowerback 14.3755 1.27137 -7.68401
upperback 0.60837 0.393859 1.20018
thorax -7.56483 0.434348 5.53857
lowerneck -3.64554 -6.63734 -8.40872
upperneck 10.3482 -8.86393 2.41702
head 4.35148 -4.70293 1.52775
lclavicle -1.53064e-14 5.80451e-14 0
lhumerus -55.0261 -8.7435 100.503
lradius 86.3818 -0 0
lwrist 43.5655 0 0
lhand -26.0251 32.5542 -0.0312835
lfingers 7.12502 -0 0
lthumb 0.521643 62.5406 -0.0296801
rclavicle -1.53064e-14 5.80451e-14 0
rhumerus 34.1046 -19.506 -92.1581
rradius 23.7339 -0 0
rwrist 65.0606 0 0
rhand -1.70976 -34.8267 -0.0715404
rfingers 7.12502 -0 0
rthumb 23.9496 -63.3315 -0.0613003
2044
root -3.34696 14.8231 22.0474 174.652 -14.2937 172.962
lfemur -5.25704 6.53761 -18.7793
ltibia 55.2098 -0 0
lfoot -26.3005 25.5259 0.187896
ltoes -39.2359 0 0
rfemur -41.4451 -9.03104 4.54672
rtibia 43.3179 -0 0
rfoot 25.4784 -1.09045 0.216598
rtoes 8.95501 -0 0
lowerback 14.4965 1.37856 -7.80786
upperback 0.656178 0.496443 1.1313
thorax -7.59129 0.484437 5.51788
lowerneck -3.57512 -6.96717 -8.66227
upperneck 10.5421 -9.33063 2.60235
head 4.41663 -4.93573 1.60743
lclavicle -1.53064e-14 5.80451e-14 0
lhumerus -56.592 -9.40323 101.821
lradius 88.9554 -0 0
lwrist 46.1527 0 0
lhand -25.9724 32.3336 -0.0290361
lfingers 7.12502 -0 0
lthumb 0.572459 62.319 -0.0275658
rclavicle -1.53064e-14 5.80451e-14 0
rhumerus 37.2397 -19.8953 -92.7151
rradius 21.5957 -0 0
rwrist 68.718 0 0
rhand -1.91482 -34.6905 -0.0635935
rfingers 7.12502 -0 0
rthumb 23.7532 -63.2231 -0.0543833
2045
root -3.34108 14.8198 21.8205 174.344 -15.0129 172.938
lfemur -4.50646 6.06176 -19.2146
ltibia 54.9106 -0 0
lfoot -26.6878 25.3515 0.167576
ltoes -39.7186 0 0
rfemur -41.906 -9.17727 4.53929
rtibia 42.4896 -0 0
rfoot 25.9451 -0.483585 0.14407
rtoes 8.96214 -0 0
lowerback 14.615 1.48266 -7.91819
upperback 0.702076 0.597773 1.06671
thorax -7.61803 0.53368 5.4943
lowerneck -3.50536 -7.27441 -8.90013
upperneck 10.7261 -9.76699 2.77506
head 4.47892 -5.1532 1.68168
lclavicle -1.53064e-14 5.80451e-14 0
lhumerus -58.0562 -10.0739 103.115
lradius 91.4878 -0 0
lwrist 48.6569 0 0
lhand -25.9161 32.1232 -0.0263171
lfingers 7.12502 -0 0
lthumb 0.626816 62.1076 -0.0249994
rclavicle -1.53064e-14 5.80451e-14 0
rhumerus 40.2404 -20.213 -93.233
rradius 19.5671 -0 0
rwrist 72.2019 0 0
rhand -2.1172 -34.5619 -0.0552074
rfingers 7.12502 -0 0
rthumb 23.5593 -63.122 -0.0471206
2046
root -3.33638 14.8179 21.5771 174.053 -15.6529 172.92
lfemur -3.81893 5.61394 -19.652
ltibia 54.6228 -0 0
lfoot -27.0523 25.171 0.144939
ltoes -40.1818 0 0
rfemur -42.3373 -9.31233 4.55137
rtibia 41.6997 -0 0
rfoot 26.3556 0.0817676 0.0822805
rtoes 8.94192 -0 0
lowerback 14.7308 1.58328 -8.01433
upperback 0.745916 0.697569 1.00668
thorax -7.64498 0.581935 5.4678
lowerneck -3.43676 -7.55771 -9.12116
upperneck 10.8997 -10.1709 2.93464
head 4.53822 -5.35437 1.75021
lclavicle -1.53064e-14 5.80451e-14 0
lhumerus -59.4117 -10.7604 104.377
lradius 93.9719 -0 0
lwrist 51.0699 0 0
lhand -25.8562 31.9238 -0.0231197
lfingers 7.12502 -0 0
lthumb 0.684702 61.9072 -0.0219742
rclavicle -1.53064e-14 5.80451e-14 0
rhumerus 43.0919 -20.4628 -93.7018
rradius 17.6564 -0 0
rwrist 75.4988 0 0
rhand -2.31636 -34.4415 -0.0464542
rfingers 7.12502 -0 0
rthumb 23.3686 -63.0285 -0.0395744
2047
root -3.33311 14.8178 21.3161 173.78 -16.2097 172.909
lfemur -3.19829 5.19512 -20.0893
ltibia 54.3474 -0 0
lfoot -27.3923 24.9845 0.12005
ltoes -40.6238 0 0
rfemur -42.7371 -9.43535 4.58329
rtibia 40.9512 -0 0
rfoot 26.7075 0.603242 0.0331705
rtoes 8.89351 -0 0
lowerback 14.8437 1.68001 -8.09563
upperback 0.787555 0.795552 0.951479
thorax -7.6721 0.629063 5.43834
lowerneck -3.36983 -7.8157 -9.32421
upperneck 11.0625 -10.5404 3.08057
head 4.59434 -5.53822 1.81272
lclavicle -1.53064e-14 5.80451e-14 0
lhumerus -60.6514 -11.4678 105.603
lradius 96.4009 -0 0
lwrist 53.3833 0 0
lhand -25.7926 31.7363 -0.0194409
lfingers 7.12502 -0 0
lthumb 0.746106 61.7186 -0.018487
rclavicle -1.53064e-14 5.80451e-14 0
rhumerus 45.7795 -20.6487 -94.1124
rradius 15.8716 -0 0
rwrist 78.5954 0 0
rhand -2.51174 -34.3299 -0.0374107
rfingers 7.12502 -0 0
rthumb 23.1814 -62.9432 -0.0318109
2048
root -3.33151 14.8194 21.0366 173.527 -16.6792 172.903
lfemur -2.64843 4.80618 -20.5241
ltibia 54.0854 -0 0
lfoot -27.7063 24.7922 0.0929955
ltoes -41.0428 0 0
rfemur -43.1036 -9.54548 4.6354
rtibia 40.247 -0 0
rfoot 26.9983 1.07845 -0.00137163
rtoes 8.81603 -0 0
lowerback 14.9533 1.77248 -8.16143
upperback 0.826846 0.891441 0.901388
thorax -7.69934 0.674923 5.40588
lowerneck -3.30508 -8.04703 -9.50813
upperneck 11.214 -10.8732 3.21231
head 4.64713 -5.70376 1.86893
lclavicle -1.53064e-14 5.80451e-14 0
lhumerus -61.7684 -12.2015 106.787
lradius 98.7675 -0 0
lwrist 55.5889 0 0
lhand -25.7254 31.5614 -0.0152818
lfingers 7.12502 -0 0
lthumb 0.811016 61.5426 -0.0145388
rclavicle -1.53064e-14 5.80451e-14 0
rhumerus 48.2889 -20.7751 -94.4563
rradius 14.2207 -0 0
rwrist 81.4781 0 0
rhand -2.70281 -34.2274 -0.0281577
rfingers 7.12502 -0 0
rthumb 22.9983 -62.8666 -0.023899
